<?xml version="1.0" encoding="iso-8859-1"?>
<!-- Generator: Adobe Illustrator 19.0.0, SVG Export Plug-In . SVG Version: 6.00 Build 0)  -->
<svg version="1.1" id="Layer_1" xmlns="http://www.w3.org/2000/svg" xmlns:xlink="http://www.w3.org/1999/xlink" x="0px" y="0px"
	 viewBox="0 0 512 512" style="enable-background:new 0 0 512 512;" xml:space="preserve">
<path style="fill:#3E4A57;" d="M171.048,256.256V134.36c0-10.557,8.638-19.196,19.196-19.196h256.268
	c10.558,0,19.196,8.64,19.196,19.196v121.896H171.048z"/>
<path style="fill:#A4A9AD;" d="M465.708,256.256v228.55c0,10.555-8.639,19.194-19.196,19.194H190.244
	c-10.559,0-19.196-8.64-19.196-19.194v-228.55H465.708z"/>
<path style="fill:#5C6670;" d="M46.291,256.256V134.36c0-10.557,8.639-19.196,19.196-19.196h354.34
	c10.555,0,19.196,8.64,19.196,19.196v121.896H46.291z"/>
<rect x="85.219" y="169.34" style="fill:#333E48;" width="311.395" height="69.492"/>
<path style="fill:#C3C6C8;" d="M439.022,256.256v228.55c0,10.555-8.64,19.194-19.196,19.194H65.487
	c-10.558,0-19.196-8.64-19.196-19.194v-228.55H439.022z"/>
<g>
	<path style="fill:#5C6670;" d="M237.781,320.563c0,5.279-4.319,9.6-9.597,9.6h-50.229c-5.28,0-9.598-4.321-9.598-9.6v-26.2
		c0-5.278,4.318-9.599,9.598-9.599h50.229c5.278,0,9.597,4.321,9.597,9.599V320.563z"/>
	<path style="fill:#5C6670;" d="M326.404,320.563c0,5.279-4.32,9.6-9.599,9.6h-50.23c-5.278,0-9.598-4.321-9.598-9.6v-26.2
		c0-5.278,4.32-9.599,9.598-9.599h50.23c5.279,0,9.599,4.321,9.599,9.599V320.563z"/>
</g>
<path style="fill:#D16A70;" d="M415.025,320.563c0,5.279-4.321,9.6-9.599,9.6h-50.229c-5.279,0-9.598-4.321-9.598-9.6v-26.2
	c0-5.278,4.318-9.599,9.598-9.599h50.229c5.278,0,9.599,4.321,9.599,9.599V320.563z"/>
<g>
	<path style="fill:#5C6670;" d="M237.781,391.488c0,5.279-4.319,9.599-9.597,9.599h-50.229c-5.28,0-9.598-4.32-9.598-9.599v-26.2
		c0-5.279,4.318-9.598,9.598-9.598h50.229c5.278,0,9.597,4.319,9.597,9.598V391.488z"/>
	<path style="fill:#5C6670;" d="M326.404,391.488c0,5.279-4.32,9.599-9.599,9.599h-50.23c-5.278,0-9.598-4.32-9.598-9.599v-26.2
		c0-5.279,4.32-9.598,9.598-9.598h50.23c5.279,0,9.599,4.319,9.599,9.598V391.488z"/>
	<path style="fill:#5C6670;" d="M237.781,462.415c0,5.278-4.319,9.597-9.597,9.597h-50.229c-5.28,0-9.598-4.319-9.598-9.597v-26.2
		c0-5.28,4.318-9.599,9.598-9.599h50.229c5.278,0,9.597,4.319,9.597,9.599V462.415z"/>
	<path style="fill:#5C6670;" d="M326.404,462.415c0,5.278-4.32,9.597-9.599,9.597h-50.23c-5.278,0-9.598-4.319-9.598-9.597v-26.2
		c0-5.28,4.32-9.599,9.598-9.599h50.23c5.279,0,9.599,4.319,9.599,9.599V462.415z"/>
</g>
<g>
	<path style="fill:#3E4A57;" d="M134.912,320.563c0,5.279-4.32,9.6-9.599,9.6h-50.23c-5.278,0-9.598-4.321-9.598-9.6v-26.2
		c0-5.278,4.319-9.599,9.598-9.599h50.23c5.28,0,9.599,4.321,9.599,9.599V320.563z"/>
	<path style="fill:#3E4A57;" d="M134.912,391.488c0,5.279-4.32,9.599-9.599,9.599h-50.23c-5.278,0-9.598-4.32-9.598-9.599v-26.2
		c0-5.279,4.319-9.598,9.598-9.598h50.23c5.28,0,9.599,4.319,9.599,9.598V391.488z"/>
	<path style="fill:#3E4A57;" d="M134.912,462.415c0,5.278-4.32,9.597-9.599,9.597h-50.23c-5.278,0-9.598-4.319-9.598-9.597v-26.2
		c0-5.28,4.319-9.599,9.598-9.599h50.23c5.28,0,9.599,4.319,9.599,9.599V462.415z"/>
	<path style="fill:#3E4A57;" d="M345.6,462.415c0,5.278,4.318,9.597,9.598,9.597h50.229c5.278,0,9.599-4.319,9.599-9.597v-97.126
		c0-5.279-4.321-9.598-9.599-9.598h-50.229c-5.279,0-9.598,4.319-9.598,9.598V462.415z"/>
</g>
<g>
	<polygon style="fill:#FFFFFF;" points="385.398,219.861 381.389,223.545 377.381,219.861 377.381,188.308 381.389,184.626 
		385.398,188.308 	"/>
	<polygon style="fill:#FFFFFF;" points="360.784,219.861 356.775,223.545 352.768,219.861 352.768,188.308 356.775,184.626 
		360.784,188.308 	"/>
	<polygon style="fill:#FFFFFF;" points="362.297,187.408 358.001,183.399 362.297,179.393 375.868,179.393 380.163,183.399 
		375.868,187.408 	"/>
	<polygon style="fill:#FFFFFF;" points="362.297,220.764 358.001,224.772 362.297,228.777 375.868,228.777 380.163,224.772 
		375.868,220.764 	"/>
	<polygon style="fill:#FFFFFF;" points="344.798,219.861 340.79,223.545 336.781,219.861 336.781,188.308 340.79,184.626 
		344.798,188.308 	"/>
	<polygon style="fill:#FFFFFF;" points="320.182,219.861 316.175,223.545 312.168,219.861 312.168,188.308 316.175,184.626 
		320.182,188.308 	"/>
	<polygon style="fill:#FFFFFF;" points="321.696,187.408 317.402,183.399 321.696,179.393 335.267,179.393 339.564,183.399 
		335.267,187.408 	"/>
	<polygon style="fill:#FFFFFF;" points="321.696,220.764 317.402,224.772 321.696,228.777 335.267,228.777 339.564,224.772 
		335.267,220.764 	"/>
	<polygon style="fill:#FFFFFF;" points="304.198,219.861 300.189,223.545 296.181,219.861 296.181,188.308 300.189,184.626 
		304.198,188.308 	"/>
	<polygon style="fill:#FFFFFF;" points="279.582,219.861 275.574,223.545 271.567,219.861 271.567,188.308 275.574,184.626 
		279.582,188.308 	"/>
	<polygon style="fill:#FFFFFF;" points="281.095,187.408 276.8,183.399 281.095,179.393 294.667,179.393 298.963,183.399 
		294.667,187.408 	"/>
	<polygon style="fill:#FFFFFF;" points="281.095,220.764 276.8,224.772 281.095,228.777 294.667,228.777 298.963,224.772 
		294.667,220.764 	"/>
	<polygon style="fill:#FFFFFF;" points="263.597,219.861 259.589,223.545 255.579,219.861 255.579,188.308 259.589,184.626 
		263.597,188.308 	"/>
	<polygon style="fill:#FFFFFF;" points="238.981,219.861 234.974,223.545 230.966,219.861 230.966,188.308 234.974,184.626 
		238.981,188.308 	"/>
	<polygon style="fill:#FFFFFF;" points="240.496,187.408 236.199,183.399 240.496,179.393 254.067,179.393 258.362,183.399 
		254.067,187.408 	"/>
	<polygon style="fill:#FFFFFF;" points="240.496,220.764 236.199,224.772 240.496,228.777 254.067,228.777 258.362,224.772 
		254.067,220.764 	"/>
	<polygon style="fill:#FFFFFF;" points="222.997,219.861 218.988,223.545 214.979,219.861 214.979,188.308 218.988,184.626 
		222.997,188.308 	"/>
	<polygon style="fill:#FFFFFF;" points="198.381,219.861 194.373,223.545 190.366,219.861 190.366,188.308 194.373,184.626 
		198.381,188.308 	"/>
	<polygon style="fill:#FFFFFF;" points="199.894,187.408 195.599,183.399 199.894,179.393 213.465,179.393 217.761,183.399 
		213.465,187.408 	"/>
	<polygon style="fill:#FFFFFF;" points="199.894,220.764 195.599,224.772 199.894,228.777 213.465,228.777 217.761,224.772 
		213.465,220.764 	"/>
	<polygon style="fill:#FFFFFF;" points="182.396,219.861 178.388,223.545 174.379,219.861 174.379,188.308 178.388,184.626 
		182.396,188.308 	"/>
	<polygon style="fill:#FFFFFF;" points="157.78,219.861 153.773,223.545 149.765,219.861 149.765,188.308 153.773,184.626 
		157.78,188.308 	"/>
	<polygon style="fill:#FFFFFF;" points="159.294,187.408 154.998,183.399 159.294,179.393 172.866,179.393 177.161,183.399 
		172.866,187.408 	"/>
	<polygon style="fill:#FFFFFF;" points="159.294,220.764 154.998,224.772 159.294,228.777 172.866,228.777 177.161,224.772 
		172.866,220.764 	"/>
	<polygon style="fill:#FFFFFF;" points="141.796,219.861 137.787,223.545 133.779,219.861 133.779,188.308 137.787,184.626 
		141.796,188.308 	"/>
</g>
<path style="fill:#E8E8E8;" d="M336.781,8c6.706,0,12.143,21.747,12.143,48.569c0,26.826-5.437,48.571-12.143,48.571H177.161
	c-6.706,0-12.143-21.745-12.143-48.571C165.018,29.746,170.455,8,177.161,8H336.781z"/>
<path style="fill:#CCCED0;" d="M165.018,56.569c0,26.826,5.437,48.571,12.143,48.571h159.621c6.706,0,12.143-21.745,12.143-48.571
	H165.018z"/>
<ellipse style="fill:#DCDDDE;" cx="336.78" cy="56.564" rx="12.143" ry="48.569"/>
<rect x="165.019" y="56.564" style="fill:#E8E8E8;" width="159.623" height="91.571"/>
<g>
	<rect x="173.926" y="123.613" style="fill:#A4A9AD;" width="141.799" height="7.541"/>
	<rect x="173.926" y="104.883" style="fill:#A4A9AD;" width="102.963" height="7.541"/>
	<rect x="173.926" y="86.163" style="fill:#A4A9AD;" width="141.799" height="7.541"/>
	<rect x="173.926" y="67.444" style="fill:#A4A9AD;" width="70.9" height="7.541"/>
	<rect x="173.926" y="48.72" style="fill:#A4A9AD;" width="141.799" height="7.541"/>
</g>
<path style="fill:#3E4A57;" d="M363.187,46.959c1.327,0,2.402,4.303,2.402,9.61c0,5.309-1.076,9.611-2.402,9.611h-26.405
	c-1.327,0-2.404-4.303-2.404-9.611c0-5.308,1.076-9.61,2.404-9.61H363.187z"/>
<path d="M405.426,276.765h-50.229c-9.703,0-17.597,7.894-17.597,17.598v26.2c0,9.705,7.894,17.6,17.597,17.6h50.229
	c9.704,0,17.598-7.894,17.598-17.6v-26.2C423.025,284.66,415.13,276.765,405.426,276.765z M407.025,320.563
	c0,0.868-0.732,1.6-1.599,1.6h-50.229c-0.866,0-1.598-0.732-1.598-1.6v-26.2c0-0.867,0.732-1.599,1.598-1.599h50.229
	c0.867,0,1.599,0.732,1.599,1.599V320.563z M228.184,347.692h-50.229c-9.703,0-17.597,7.894-17.597,17.597v26.2
	c0,9.704,7.894,17.598,17.597,17.598h50.229c9.703,0,17.596-7.894,17.596-17.598v-26.2
	C245.781,355.586,237.887,347.692,228.184,347.692z M229.781,391.488c0,0.867-0.732,1.599-1.597,1.599h-50.229
	c-0.866,0-1.598-0.733-1.598-1.599v-26.2c0-0.867,0.732-1.598,1.598-1.598h50.229c0.866,0,1.597,0.731,1.597,1.598V391.488z
	 M316.805,418.617h-50.23c-9.703,0-17.597,7.894-17.597,17.598v26.2c0,9.703,7.894,17.596,17.597,17.596h50.23
	c9.704,0,17.598-7.893,17.598-17.596v-26.2C334.404,426.511,326.509,418.617,316.805,418.617z M318.404,462.415
	c0,0.865-0.733,1.597-1.599,1.597h-50.23c-0.866,0-1.598-0.732-1.598-1.597v-26.2c0-0.867,0.732-1.599,1.598-1.599h50.23
	c0.867,0,1.599,0.733,1.599,1.599V462.415z M228.184,276.765h-50.229c-9.703,0-17.597,7.894-17.597,17.598v26.2
	c0,9.705,7.894,17.6,17.597,17.6h50.229c9.703,0,17.596-7.894,17.596-17.6v-26.2C245.781,284.66,237.887,276.765,228.184,276.765z
	 M229.781,320.563c0,0.868-0.732,1.6-1.597,1.6h-50.229c-0.866,0-1.598-0.732-1.598-1.6v-26.2c0-0.867,0.732-1.599,1.598-1.599
	h50.229c0.866,0,1.597,0.732,1.597,1.599V320.563z M85.219,246.829h311.396c4.418,0,8-3.581,8-8v-69.487c0-4.419-3.582-8-8-8H85.219
	c-4.418,0-8,3.581-8,8v69.487C77.219,243.248,80.801,246.829,85.219,246.829z M93.218,177.342h295.396v53.488H93.218V177.342z
	 M446.513,107.164h-72.924V56.569c0-15.322-6.517-17.61-10.402-17.61h-7.032C353.357,6.998,344.226,0,336.781,0H177.161
	c-18.691,0-20.142,43.299-20.142,56.569v50.595H65.487c-14.996,0-27.196,12.2-27.196,27.196v350.446
	c0,14.995,12.2,27.194,27.196,27.194h381.026c14.996,0,27.196-12.2,27.196-27.194V134.36
	C473.708,119.363,461.509,107.164,446.513,107.164z M342.421,54.959h15.125c0.027,0.496,0.044,1.035,0.044,1.611
	c0,0.576-0.016,1.115-0.044,1.612h-15.125c-0.027-0.497-0.044-1.036-0.044-1.612C342.378,55.993,342.394,55.455,342.421,54.959z
	 M357.589,74.181v32.984h-10.405c4.012-5.479,7.44-15.491,8.97-32.984C356.155,74.181,357.589,74.181,357.589,74.181z
	 M336.792,21.18c1.212,3.957,2.459,9.832,3.267,17.78h-3.278c-1.267,0-2.378,0.223-3.36,0.612
	C334.229,31.351,335.54,25.256,336.792,21.18z M332.639,73.177c1.452,0.778,2.927,1.003,4.144,1.003h3.28
	c-1.304,12.822-3.76,20.263-5.34,22.959h-2.084V73.177z M173.018,56.569c0-23.692,4.07-36.829,6.215-40.57h142.414
	c-4.483,13.752-5.008,32.59-5.008,40.57v83.572H173.018V56.569z M431.022,484.806c0,6.173-5.023,11.194-11.197,11.194H65.487
	c-6.174,0-11.197-5.022-11.197-11.194V134.36c0-6.174,5.023-11.197,11.197-11.197h91.532v24.978c0,4.419,3.582,8,8,8h159.621
	c4.418,0,8-3.581,8-8v-24.978h87.188c6.174,0,11.197,5.023,11.197,11.197v350.446H431.022z M457.709,484.806
	c0,6.173-5.022,11.194-11.197,11.194H444.6c1.551-3.416,2.421-7.205,2.421-11.194V134.36c0-3.99-0.87-7.779-2.421-11.197h1.912
	c6.174,0,11.197,5.023,11.197,11.197V484.806z M125.314,418.617h-50.23c-9.703,0-17.597,7.894-17.597,17.598v26.2
	c0,9.703,7.894,17.596,17.597,17.596h50.23c9.704,0,17.598-7.893,17.598-17.596v-26.2
	C142.912,426.511,135.018,418.617,125.314,418.617z M126.913,462.415c0,0.865-0.732,1.597-1.599,1.597h-50.23
	c-0.866,0-1.598-0.732-1.598-1.597v-26.2c0-0.867,0.732-1.599,1.598-1.599h50.23c0.867,0,1.599,0.733,1.599,1.599V462.415z
	 M316.805,276.765h-50.23c-9.703,0-17.597,7.894-17.597,17.598v26.2c0,9.705,7.894,17.6,17.597,17.6h50.23
	c9.704,0,17.598-7.894,17.598-17.6v-26.2C334.404,284.66,326.509,276.765,316.805,276.765z M318.404,320.563
	c0,0.868-0.733,1.6-1.599,1.6h-50.23c-0.866,0-1.598-0.732-1.598-1.6v-26.2c0-0.867,0.732-1.599,1.598-1.599h50.23
	c0.867,0,1.599,0.732,1.599,1.599V320.563z M125.314,347.692h-50.23c-9.703,0-17.597,7.894-17.597,17.597v26.2
	c0,9.704,7.894,17.598,17.597,17.598h50.23c9.704,0,17.598-7.894,17.598-17.598v-26.2
	C142.912,355.586,135.018,347.692,125.314,347.692z M126.913,391.488c0,0.867-0.732,1.599-1.599,1.599h-50.23
	c-0.866,0-1.598-0.733-1.598-1.599v-26.2c0-0.867,0.732-1.598,1.598-1.598h50.23c0.867,0,1.599,0.731,1.599,1.598V391.488z
	 M405.426,347.692h-50.229c-9.703,0-17.597,7.894-17.597,17.597v97.126c0,9.703,7.894,17.596,17.597,17.596h50.229
	c9.704,0,17.598-7.893,17.598-17.596v-97.126C423.025,355.586,415.13,347.692,405.426,347.692z M407.025,462.415
	c0,0.865-0.732,1.597-1.599,1.597h-50.229c-0.865,0-1.598-0.732-1.598-1.597v-97.126c0-0.867,0.732-1.598,1.598-1.598h50.229
	c0.867,0,1.599,0.731,1.599,1.598V462.415z M125.314,276.765h-50.23c-9.703,0-17.597,7.894-17.597,17.598v26.2
	c0,9.705,7.894,17.6,17.597,17.6h50.23c9.704,0,17.598-7.894,17.598-17.6v-26.2C142.912,284.66,135.018,276.765,125.314,276.765z
	 M126.913,320.563c0,0.868-0.732,1.6-1.599,1.6h-50.23c-0.866,0-1.598-0.732-1.598-1.6v-26.2c0-0.867,0.732-1.599,1.598-1.599h50.23
	c0.867,0,1.599,0.732,1.599,1.599V320.563z M316.805,347.692h-50.23c-9.703,0-17.597,7.894-17.597,17.597v26.2
	c0,9.704,7.894,17.598,17.597,17.598h50.23c9.704,0,17.598-7.894,17.598-17.598v-26.2
	C334.404,355.586,326.509,347.692,316.805,347.692z M318.404,391.488c0,0.867-0.733,1.599-1.599,1.599h-50.23
	c-0.866,0-1.598-0.733-1.598-1.599v-26.2c0-0.867,0.732-1.598,1.598-1.598h50.23c0.867,0,1.599,0.731,1.599,1.598V391.488z
	 M228.184,418.617h-50.229c-9.703,0-17.597,7.894-17.597,17.598v26.2c0,9.703,7.894,17.596,17.597,17.596h50.229
	c9.703,0,17.596-7.893,17.596-17.596v-26.2C245.781,426.511,237.887,418.617,228.184,418.617z M229.781,462.415
	c0,0.865-0.732,1.597-1.597,1.597h-50.229c-0.866,0-1.598-0.732-1.598-1.597v-26.2c0-0.867,0.732-1.599,1.598-1.599h50.229
	c0.866,0,1.597,0.733,1.597,1.599V462.415z"/>
<g>
</g>
<g>
</g>
<g>
</g>
<g>
</g>
<g>
</g>
<g>
</g>
<g>
</g>
<g>
</g>
<g>
</g>
<g>
</g>
<g>
</g>
<g>
</g>
<g>
</g>
<g>
</g>
<g>
</g>
</svg>
