<?xml version="1.0" encoding="iso-8859-1"?>
<!-- Generator: Adobe Illustrator 19.0.0, SVG Export Plug-In . SVG Version: 6.00 Build 0)  -->
<svg version="1.1" id="Capa_1" xmlns="http://www.w3.org/2000/svg" xmlns:xlink="http://www.w3.org/1999/xlink" x="0px" y="0px"
	 viewBox="0 0 512 512" style="enable-background:new 0 0 512 512;" xml:space="preserve">
<path style="fill:#6693C4;" d="M512,256c0,98.973-56.163,184.822-138.355,227.422c-9.31,4.838-18.965,9.101-28.902,12.779
	C317.095,506.42,287.201,512,256,512s-61.095-5.58-88.743-15.809c-9.937-3.668-19.592-7.931-28.902-12.769
	C56.163,440.822,0,354.973,0,256c0-13.855,1.097-27.449,3.229-40.699C15.6,137.801,62.757,71.91,128.199,34.137
	C165.804,12.424,209.45,0,256,0c46.54,0,90.175,12.413,127.781,34.126C449.223,71.889,496.389,137.78,508.771,215.28
	C510.903,228.54,512,242.145,512,256z"/>
<path style="fill:#85B3D4;" d="M508.771,215.28C474.958,322.685,374.575,400.583,256,400.583S37.052,322.696,3.229,215.301
	C15.6,137.801,62.757,71.91,128.199,34.137C165.804,12.424,209.45,0,256,0c46.54,0,90.175,12.413,127.781,34.126
	C449.223,71.889,496.389,137.78,508.771,215.28z"/>
<path style="fill:#97CBE3;" d="M423.758,142.848c0,92.651-75.107,167.758-167.758,167.758c-92.662,0-167.769-75.107-167.769-167.758
	c0-41.472,15.047-79.423,39.967-108.711C165.804,12.424,209.45,0,256,0c46.54,0,90.175,12.413,127.781,34.126
	C408.712,63.415,423.758,101.376,423.758,142.848z"/>
<g>
	<rect x="202.188" y="308.109" style="fill:#515878;" width="107.624" height="31.347"/>
	<rect x="171.781" y="410.321" style="fill:#515878;" width="168.438" height="31.347"/>
</g>
<circle style="fill:#74BCE0;" cx="256" cy="142.848" r="100.331"/>
<path style="fill:#515878;" d="M271.026,147.31L256,197.831l-88.743,298.36c-9.937-3.668-19.592-7.931-28.902-12.769
	l102.619-345.046L256,142.848L271.026,147.31z"/>
<g>
	<polygon style="fill:#343B5E;" points="309.812,339.456 279.312,339.456 269.991,308.109 302.696,308.109 309.812,332.027 	"/>
	<polygon style="fill:#343B5E;" points="340.219,434.27 340.219,441.668 309.718,441.668 300.387,410.321 333.093,410.321 	"/>
</g>
<path style="fill:#515878;" d="M373.645,483.422c-9.31,4.838-18.965,9.101-28.902,12.779L256,197.831l-15.026-50.521L256,142.848
	l15.026-4.472L373.645,483.422z"/>
<path style="fill:#E5B000;" d="M301.443,142.848c0,19.769-12.612,36.582-30.239,42.83c-4.754,1.693-9.874,2.612-15.203,2.612
	c-25.109,0-45.453-20.344-45.453-45.443c0-25.109,20.344-45.453,45.453-45.453c5.329,0,10.449,0.92,15.203,2.612
	C288.831,106.256,301.443,123.079,301.443,142.848z"/>
<path style="fill:#F9E15C;" d="M301.443,142.848c0,19.769-12.612,36.582-30.239,42.83c-17.617-6.248-30.239-23.071-30.239-42.83
	c0-19.769,12.622-36.592,30.239-42.841C288.831,106.256,301.443,123.079,301.443,142.848z"/>
<g>
</g>
<g>
</g>
<g>
</g>
<g>
</g>
<g>
</g>
<g>
</g>
<g>
</g>
<g>
</g>
<g>
</g>
<g>
</g>
<g>
</g>
<g>
</g>
<g>
</g>
<g>
</g>
<g>
</g>
</svg>
